<?xml version="1.2" encoding="utf-8"?>

<svg width="256" height="256" viewBox="0 0 256 256" fill="none" xmlns="http://www.w3.org/2000/svg">
<g clip-path="url(#clip0_225_388)">
<path d="M128 256C198.692 256 256 198.692 256 128C256 57.3076 198.692 0 128 0C57.3076 0 0 57.3076 0 128C0 198.692 57.3076 256 128 256Z" fill="url(#paint0_linear_225_388)"/>
<g filter="url(#filter0_i_225_388)">
<path d="M70 80H107V136.351C107 143.206 108.152 148.759 110.456 153.009C112.896 157.26 117.91 159.385 125.5 159.385C133.09 159.385 138.037 157.26 140.341 153.009C142.78 148.759 144 143.275 144 136.557V80H181V143.549C181 161.099 175.647 173.096 164.94 179.54C154.368 185.847 141.222 189 125.5 189C109.914 189 96.7674 185.847 86.0604 179.54C75.3535 173.096 70 161.167 70 143.755V80Z" fill="white"/>
</g>
</g>
<defs>
<filter id="filter0_i_225_388" x="70" y="80" width="111" height="110" filterUnits="userSpaceOnUse" color-interpolation-filters="sRGB">
<feFlood flood-opacity="0" result="BackgroundImageFix"/>
<feBlend mode="normal" in="SourceGraphic" in2="BackgroundImageFix" result="shape"/>
<feColorMatrix in="SourceAlpha" type="matrix" values="0 0 0 0 0 0 0 0 0 0 0 0 0 0 0 0 0 0 127 0" result="hardAlpha"/>
<feOffset dy="1"/>
<feGaussianBlur stdDeviation="2.5"/>
<feComposite in2="hardAlpha" operator="arithmetic" k2="-1" k3="1"/>
<feColorMatrix type="matrix" values="0 0 0 0 0 0 0 0 0 0 0 0 0 0 0 0 0 0 0.04 0"/>
<feBlend mode="normal" in2="shape" result="effect1_innerShadow_225_388"/>
</filter>
<linearGradient id="paint0_linear_225_388" x1="128" y1="0" x2="128" y2="256" gradientUnits="userSpaceOnUse">
<stop stop-color="#779EFF"/>
<stop offset="0.0001" stop-color="#0085FF"/>
<stop offset="1" stop-color="#1B5AF6"/>
</linearGradient>
<clipPath id="clip0_225_388">
<rect width="256" height="256" fill="white"/>
</clipPath>
</defs>
</svg>
