
<svg width="1515" height="270" viewBox="0 0 1515 270" fill="none" xmlns="http://www.w3.org/2000/svg">
<path d="M0.146285 97.788H59.1143V186.564C59.1143 197.364 60.9503 206.112 64.6223 212.808C68.5103 219.504 76.5023 222.852 88.5983 222.852C100.694 222.852 108.578 219.504 112.25 212.808C116.138 206.112 118.082 197.472 118.082 186.888V97.788H177.05V197.904C177.05 225.552 168.518 244.452 151.454 254.604C134.606 264.54 113.654 269.508 88.5983 269.508C63.7583 269.508 42.8063 264.54 25.7423 254.604C8.67829 244.452 0.146285 225.66 0.146285 198.228V97.788ZM268.801 97.788V119.172H269.449C276.361 109.236 284.029 102.324 292.453 98.436C301.093 94.548 311.137 92.604 322.585 92.604C345.049 92.604 361.033 98.976 370.537 111.72C380.257 124.464 385.117 141.096 385.117 161.616V264H326.149V183C326.149 182.568 326.149 182.028 326.149 181.38C326.149 180.732 326.149 180.084 326.149 179.436C326.149 177.492 326.149 175.44 326.149 173.28C326.149 171.12 326.041 168.96 325.825 166.8C325.393 160.104 323.449 153.948 319.993 148.332C316.537 142.5 309.733 139.584 299.581 139.584C287.701 139.584 279.601 143.472 275.281 151.248C270.961 158.808 268.801 167.772 268.801 178.14V264H209.833V97.788H268.801ZM478.148 97.788V264H419.18V97.788H478.148ZM448.664 0.911988C457.736 1.12799 465.512 4.47599 471.992 10.956C478.472 17.436 481.712 25.212 481.712 34.284C481.712 43.356 478.472 51.132 471.992 57.612C465.512 64.092 457.736 67.332 448.664 67.332C439.592 67.332 431.816 64.092 425.336 57.612C418.856 51.132 415.616 43.356 415.616 34.284C415.616 25.212 418.856 17.436 425.336 10.956C431.816 4.47599 439.592 1.23598 448.664 1.23598V0.911988ZM553.885 97.788L593.737 183L633.265 97.788H699.361L612.529 264H574.945L487.789 97.788H553.885ZM890.86 97.788V264H831.892V245.532H831.244C826.492 253.308 820.012 259.14 811.804 263.028C803.596 266.7 795.064 268.752 786.208 269.184C785.344 269.4 784.48 269.508 783.616 269.508C782.752 269.508 781.888 269.508 781.024 269.508C756.4 269.508 736.204 260.76 720.436 243.264C704.884 225.552 697.108 204.816 697.108 181.056C697.108 157.296 704.776 136.668 720.112 119.172C735.664 101.46 755.752 92.604 780.376 92.604C781.456 92.604 782.536 92.604 783.616 92.604C784.696 92.604 785.776 92.712 786.856 92.928C795.28 93.576 803.488 95.736 811.48 99.408C819.688 102.864 826.492 107.832 831.892 114.312V97.788H890.86ZM795.928 143.472C784.048 143.688 774.76 147.576 768.064 155.136C761.368 162.48 758.02 171.228 758.02 181.38C758.02 191.964 761.368 200.82 768.064 207.948C774.76 215.076 784.048 218.64 795.928 218.64C808.024 218.64 817.312 215.076 823.792 207.948C830.488 200.82 833.836 191.964 833.836 181.38C833.836 171.228 830.488 162.48 823.792 155.136C817.312 147.576 808.024 143.796 795.928 143.796V143.472ZM989.564 146.388V264H930.596V146.388H911.48V97.788H930.596V47.892H989.564V97.788H1022.94V146.388H989.564ZM1095.95 97.788V264H1036.98V97.788H1095.95ZM1066.47 0.911988C1075.54 1.12799 1083.31 4.47599 1089.79 10.956C1096.27 17.436 1099.51 25.212 1099.51 34.284C1099.51 43.356 1096.27 51.132 1089.79 57.612C1083.31 64.092 1075.54 67.332 1066.47 67.332C1057.39 67.332 1049.62 64.092 1043.14 57.612C1036.66 51.132 1033.42 43.356 1033.42 34.284C1033.42 25.212 1036.66 17.436 1043.14 10.956C1049.62 4.47599 1057.39 1.23598 1066.47 1.23598V0.911988ZM1217.7 92.28C1244.48 92.496 1267.81 100.38 1287.68 115.932C1307.77 131.268 1317.81 153.084 1317.81 181.38C1317.81 209.46 1307.77 231.168 1287.68 246.504C1267.81 261.84 1244.48 269.508 1217.7 269.508C1191.13 269.508 1167.8 261.948 1147.71 246.828C1127.62 231.492 1117.58 209.676 1117.58 181.38C1117.58 153.084 1127.52 131.268 1147.39 115.932C1167.48 100.38 1190.91 92.604 1217.7 92.604V92.28ZM1217.7 143.472C1205.82 143.688 1196.53 147.576 1189.83 155.136C1183.14 162.48 1179.79 171.228 1179.79 181.38C1179.79 191.964 1183.14 200.82 1189.83 207.948C1196.53 215.076 1205.82 218.64 1217.7 218.64C1229.79 218.64 1239.08 215.076 1245.56 207.948C1252.26 200.82 1255.6 191.964 1255.6 181.38C1255.6 171.228 1252.26 162.48 1245.56 155.136C1239.08 147.576 1229.79 143.796 1217.7 143.796V143.472ZM1398.52 97.788V119.172H1399.17C1406.08 109.236 1413.75 102.324 1422.17 98.436C1430.81 94.548 1440.86 92.604 1452.31 92.604C1474.77 92.604 1490.75 98.976 1500.26 111.72C1509.98 124.464 1514.84 141.096 1514.84 161.616V264H1455.87V183C1455.87 182.568 1455.87 182.028 1455.87 181.38C1455.87 180.732 1455.87 180.084 1455.87 179.436C1455.87 177.492 1455.87 175.44 1455.87 173.28C1455.87 171.12 1455.76 168.96 1455.55 166.8C1455.11 160.104 1453.17 153.948 1449.71 148.332C1446.26 142.5 1439.45 139.584 1429.3 139.584C1417.42 139.584 1409.32 143.472 1405 151.248C1400.68 158.808 1398.52 167.772 1398.52 178.14V264H1339.55V97.788H1398.52Z" fill="#0284FE"/>
</svg>
